# xmcd
#
# Track frame offsets: 
#        150
#        11342
#        25134
#        36898
#        49947
#        62199
#        73214
#        88250
#        99777
#        113467
#        124392
#        135933
#        149426
#        161457
#        173981
#        185095
#        195972
#        208726
#        223106
#        235455
#        248960
#        259126
#        270185
#        283326
#        296536
#
# Disc length: 4148 seconds
#
# Revision: 0
# Processed by: cddbd v1.5.2PL0 Copyright (c) Steve Scherf et al.
# Submitted via: ExactAudioCopy v1.3
#
DISCID=7a103219
DTITLE=Various Artist - Greatest Hits - Blues [CD7)
DYEAR=2009
DGENRE=Blues
TTITLE0=Bo Diddley - Bo Diddley
TTITLE1=Muddy Waters - I Want You To Love Me
TTITLE2=Ray Charles - What Would I Do Without You
TTITLE3=Bobby "Blue" Bland - You Or None
TTITLE4=T-Bone Walker - I Get So Weary
TTITLE5=B.B. King - Gotta Find My Baby
TTITLE6=Johnny "Guitar" Watson - Hot Little Mama
TTITLE7=Mel Walker With Johnny Otis and His - Dreamin' Blues
TTITLE8=B.B. King - 3 O'clock Blues
TTITLE9=Johnny "Guitar" Watson - I Got Eyes
TTITLE10=Bo Diddley - I'm Looking For A Woman
TTITLE11=Bobby "Blue" Bland - Farther Up The Road
TTITLE12=Brownie Mcghee - My Fault
TTITLE13=James Brown - Gonna Try
TTITLE14=Bo Diddley - Diddley Daddy
TTITLE15=John Lee Hooker - Gotta Boogie
TTITLE16=Ray Charles - Feelin' Sad
TTITLE17=Muddy Waters - Blow Wind Blow
TTITLE18=T-Bone Walker - Glamour Girl
TTITLE19=John Lee Hooker - John Lee´s House Rent Boogie
TTITLE20=Floyd Dixon - Wind Blues
TTITLE21=Amos Milburn - Amos' Blues
TTITLE22=Walter Brown - Nasty Attitude
TTITLE23=Andrew Tibbs - Bilbo Is Dead
TTITLE24=Lowell Fulsom - Good Woman Blues
EXTD=
EXTT0=
EXTT1=
EXTT2=
EXTT3=
EXTT4=
EXTT5=
EXTT6=
EXTT7=
EXTT8=
EXTT9=
EXTT10=
EXTT11=
EXTT12=
EXTT13=
EXTT14=
EXTT15=
EXTT16=
EXTT17=
EXTT18=
EXTT19=
EXTT20=
EXTT21=
EXTT22=
EXTT23=
EXTT24=
PLAYORDER=
